<mxfile host="app.diagrams.net" agent="Mozilla/5.0 (Windows NT 10.0; Win64; x64; rv:133.0) Gecko/20100101 Firefox/133.0" version="25.0.3">
  <diagram id="C5RBs43oDa-KdzZeNtuy" name="Page-1">
    <mxGraphModel dx="1434" dy="774" grid="1" gridSize="10" guides="1" tooltips="1" connect="1" arrows="1" fold="1" page="1" pageScale="1" pageWidth="827" pageHeight="1169" math="0" shadow="0">
      <root>
        <mxCell id="WIyWlLk6GJQsqaUBKTNV-0" />
        <mxCell id="WIyWlLk6GJQsqaUBKTNV-1" parent="WIyWlLk6GJQsqaUBKTNV-0" />
        <mxCell id="WIyWlLk6GJQsqaUBKTNV-2" value="" style="rounded=0;html=1;jettySize=auto;orthogonalLoop=1;fontSize=11;endArrow=block;endFill=0;endSize=8;strokeWidth=1;shadow=0;labelBackgroundColor=none;edgeStyle=orthogonalEdgeStyle;entryX=0.5;entryY=0;entryDx=0;entryDy=0;" parent="WIyWlLk6GJQsqaUBKTNV-1" source="WIyWlLk6GJQsqaUBKTNV-3" target="WIyWlLk6GJQsqaUBKTNV-7" edge="1">
          <mxGeometry relative="1" as="geometry">
            <mxPoint x="220" y="170" as="targetPoint" />
          </mxGeometry>
        </mxCell>
        <mxCell id="WIyWlLk6GJQsqaUBKTNV-3" value="User Uploads File" style="rounded=1;whiteSpace=wrap;html=1;fontSize=12;glass=0;strokeWidth=1;shadow=0;" parent="WIyWlLk6GJQsqaUBKTNV-1" vertex="1">
          <mxGeometry x="160" y="80" width="120" height="40" as="geometry" />
        </mxCell>
        <mxCell id="F4SpeGn3STQ8apCfpc9X-2" value="" style="edgeStyle=orthogonalEdgeStyle;rounded=0;orthogonalLoop=1;jettySize=auto;html=1;" parent="WIyWlLk6GJQsqaUBKTNV-1" source="WIyWlLk6GJQsqaUBKTNV-7" target="WIyWlLk6GJQsqaUBKTNV-12" edge="1">
          <mxGeometry relative="1" as="geometry" />
        </mxCell>
        <mxCell id="WIyWlLk6GJQsqaUBKTNV-7" value="useFileHandling.ts" style="rounded=1;whiteSpace=wrap;html=1;fontSize=12;glass=0;strokeWidth=1;shadow=0;fillColor=#d5e8d4;strokeColor=#82b366;" parent="WIyWlLk6GJQsqaUBKTNV-1" vertex="1">
          <mxGeometry x="160" y="160" width="120" height="40" as="geometry" />
        </mxCell>
        <mxCell id="F4SpeGn3STQ8apCfpc9X-4" value="" style="edgeStyle=orthogonalEdgeStyle;rounded=0;orthogonalLoop=1;jettySize=auto;html=1;" parent="WIyWlLk6GJQsqaUBKTNV-1" source="WIyWlLk6GJQsqaUBKTNV-12" edge="1">
          <mxGeometry relative="1" as="geometry">
            <mxPoint x="120" y="260" as="targetPoint" />
          </mxGeometry>
        </mxCell>
        <mxCell id="F4SpeGn3STQ8apCfpc9X-7" value="" style="edgeStyle=orthogonalEdgeStyle;rounded=0;orthogonalLoop=1;jettySize=auto;html=1;" parent="WIyWlLk6GJQsqaUBKTNV-1" source="WIyWlLk6GJQsqaUBKTNV-12" target="F4SpeGn3STQ8apCfpc9X-6" edge="1">
          <mxGeometry relative="1" as="geometry" />
        </mxCell>
        <mxCell id="WIyWlLk6GJQsqaUBKTNV-12" value="process.js" style="rounded=1;whiteSpace=wrap;html=1;fontSize=12;glass=0;strokeWidth=1;shadow=0;fillColor=#dae8fc;strokeColor=#6c8ebf;" parent="WIyWlLk6GJQsqaUBKTNV-1" vertex="1">
          <mxGeometry x="160" y="240" width="120" height="40" as="geometry" />
        </mxCell>
        <mxCell id="F4SpeGn3STQ8apCfpc9X-0" value="&lt;font style=&quot;font-size: 20px;&quot;&gt;Embed Logic&lt;/font&gt;" style="text;html=1;align=center;verticalAlign=middle;resizable=0;points=[];autosize=1;strokeColor=none;fillColor=none;fontSize=18;" parent="WIyWlLk6GJQsqaUBKTNV-1" vertex="1">
          <mxGeometry x="150" y="30" width="140" height="40" as="geometry" />
        </mxCell>
        <mxCell id="F4SpeGn3STQ8apCfpc9X-5" value="creates file metadata in MongoDB" style="rounded=0;whiteSpace=wrap;html=1;fillColor=#fad7ac;strokeColor=#b46504;" parent="WIyWlLk6GJQsqaUBKTNV-1" vertex="1">
          <mxGeometry x="10" y="230" width="120" height="60" as="geometry" />
        </mxCell>
        <mxCell id="F4SpeGn3STQ8apCfpc9X-11" value="" style="edgeStyle=orthogonalEdgeStyle;rounded=0;orthogonalLoop=1;jettySize=auto;html=1;" parent="WIyWlLk6GJQsqaUBKTNV-1" source="F4SpeGn3STQ8apCfpc9X-6" target="F4SpeGn3STQ8apCfpc9X-10" edge="1">
          <mxGeometry relative="1" as="geometry" />
        </mxCell>
        <mxCell id="F4SpeGn3STQ8apCfpc9X-6" value="uploadVector() function is triggered inside crud.js" style="rounded=1;whiteSpace=wrap;html=1;fontSize=12;glass=0;strokeWidth=1;shadow=0;fillColor=#dae8fc;strokeColor=#6c8ebf;" parent="WIyWlLk6GJQsqaUBKTNV-1" vertex="1">
          <mxGeometry x="160" y="320" width="120" height="50" as="geometry" />
        </mxCell>
        <mxCell id="F4SpeGn3STQ8apCfpc9X-17" value="" style="edgeStyle=orthogonalEdgeStyle;rounded=0;orthogonalLoop=1;jettySize=auto;html=1;" parent="WIyWlLk6GJQsqaUBKTNV-1" source="F4SpeGn3STQ8apCfpc9X-10" target="F4SpeGn3STQ8apCfpc9X-16" edge="1">
          <mxGeometry relative="1" as="geometry" />
        </mxCell>
        <mxCell id="F4SpeGn3STQ8apCfpc9X-10" value="file sent to the RAG API by /upload enpoint" style="whiteSpace=wrap;html=1;rounded=1;glass=0;strokeWidth=1;shadow=0;fillColor=#dae8fc;strokeColor=#6c8ebf;" parent="WIyWlLk6GJQsqaUBKTNV-1" vertex="1">
          <mxGeometry x="160" y="410" width="120" height="60" as="geometry" />
        </mxCell>
        <mxCell id="F4SpeGn3STQ8apCfpc9X-23" value="" style="edgeStyle=orthogonalEdgeStyle;rounded=0;orthogonalLoop=1;jettySize=auto;html=1;" parent="WIyWlLk6GJQsqaUBKTNV-1" source="F4SpeGn3STQ8apCfpc9X-16" target="F4SpeGn3STQ8apCfpc9X-22" edge="1">
          <mxGeometry relative="1" as="geometry" />
        </mxCell>
        <mxCell id="F4SpeGn3STQ8apCfpc9X-16" value="File is processed and sent request for embed the file " style="rounded=0;whiteSpace=wrap;html=1;fillColor=#f0a30a;fontColor=#000000;strokeColor=#BD7000;" parent="WIyWlLk6GJQsqaUBKTNV-1" vertex="1">
          <mxGeometry x="330" y="410" width="120" height="60" as="geometry" />
        </mxCell>
        <mxCell id="F4SpeGn3STQ8apCfpc9X-18" value="MongoDB" style="text;html=1;align=center;verticalAlign=middle;whiteSpace=wrap;rounded=0;" parent="WIyWlLk6GJQsqaUBKTNV-1" vertex="1">
          <mxGeometry x="40" y="200" width="60" height="30" as="geometry" />
        </mxCell>
        <mxCell id="F4SpeGn3STQ8apCfpc9X-21" value="RAG API" style="text;html=1;align=center;verticalAlign=middle;whiteSpace=wrap;rounded=0;" parent="WIyWlLk6GJQsqaUBKTNV-1" vertex="1">
          <mxGeometry x="360" y="370" width="60" height="30" as="geometry" />
        </mxCell>
        <mxCell id="F4SpeGn3STQ8apCfpc9X-27" value="" style="edgeStyle=orthogonalEdgeStyle;rounded=0;orthogonalLoop=1;jettySize=auto;html=1;entryX=0.5;entryY=0;entryDx=0;entryDy=0;entryPerimeter=0;" parent="WIyWlLk6GJQsqaUBKTNV-1" source="F4SpeGn3STQ8apCfpc9X-22" edge="1" target="F4SpeGn3STQ8apCfpc9X-87">
          <mxGeometry relative="1" as="geometry">
            <mxPoint x="570.0000000000001" y="525" as="targetPoint" />
          </mxGeometry>
        </mxCell>
        <mxCell id="F4SpeGn3STQ8apCfpc9X-22" value="Files are embedded" style="rounded=0;whiteSpace=wrap;html=1;fillColor=#76608a;fontColor=#ffffff;strokeColor=#432D57;" parent="WIyWlLk6GJQsqaUBKTNV-1" vertex="1">
          <mxGeometry x="510" y="410" width="120" height="60" as="geometry" />
        </mxCell>
        <mxCell id="F4SpeGn3STQ8apCfpc9X-24" value="OLLAMA-BGE-M3 Embedding Service" style="text;html=1;align=center;verticalAlign=middle;whiteSpace=wrap;rounded=0;" parent="WIyWlLk6GJQsqaUBKTNV-1" vertex="1">
          <mxGeometry x="515" y="360" width="115" height="50" as="geometry" />
        </mxCell>
        <mxCell id="F4SpeGn3STQ8apCfpc9X-28" value="Qdrant VectorDB" style="text;html=1;align=center;verticalAlign=middle;whiteSpace=wrap;rounded=0;" parent="WIyWlLk6GJQsqaUBKTNV-1" vertex="1">
          <mxGeometry x="465" y="580" width="60" height="30" as="geometry" />
        </mxCell>
        <mxCell id="F4SpeGn3STQ8apCfpc9X-29" value="" style="rounded=0;html=1;jettySize=auto;orthogonalLoop=1;fontSize=11;endArrow=block;endFill=0;endSize=8;strokeWidth=1;shadow=0;labelBackgroundColor=none;edgeStyle=orthogonalEdgeStyle;entryX=0.5;entryY=0;entryDx=0;entryDy=0;" parent="WIyWlLk6GJQsqaUBKTNV-1" source="F4SpeGn3STQ8apCfpc9X-30" target="F4SpeGn3STQ8apCfpc9X-32" edge="1">
          <mxGeometry relative="1" as="geometry">
            <mxPoint x="240" y="700" as="targetPoint" />
          </mxGeometry>
        </mxCell>
        <mxCell id="F4SpeGn3STQ8apCfpc9X-30" value="User sends query " style="rounded=1;whiteSpace=wrap;html=1;fontSize=12;glass=0;strokeWidth=1;shadow=0;" parent="WIyWlLk6GJQsqaUBKTNV-1" vertex="1">
          <mxGeometry x="210" y="600" width="120" height="40" as="geometry" />
        </mxCell>
        <mxCell id="F4SpeGn3STQ8apCfpc9X-31" value="" style="edgeStyle=orthogonalEdgeStyle;rounded=0;orthogonalLoop=1;jettySize=auto;html=1;" parent="WIyWlLk6GJQsqaUBKTNV-1" source="F4SpeGn3STQ8apCfpc9X-32" target="F4SpeGn3STQ8apCfpc9X-35" edge="1">
          <mxGeometry relative="1" as="geometry" />
        </mxCell>
        <mxCell id="F4SpeGn3STQ8apCfpc9X-32" value="chatV2.js initializes thread" style="rounded=1;whiteSpace=wrap;html=1;fontSize=12;glass=0;strokeWidth=1;shadow=0;fillColor=#cce5ff;strokeColor=#36393d;" parent="WIyWlLk6GJQsqaUBKTNV-1" vertex="1">
          <mxGeometry x="210" y="690" width="120" height="40" as="geometry" />
        </mxCell>
        <mxCell id="F4SpeGn3STQ8apCfpc9X-51" value="" style="edgeStyle=orthogonalEdgeStyle;rounded=0;orthogonalLoop=1;jettySize=auto;html=1;" parent="WIyWlLk6GJQsqaUBKTNV-1" source="F4SpeGn3STQ8apCfpc9X-35" edge="1">
          <mxGeometry relative="1" as="geometry">
            <mxPoint x="140" y="790" as="targetPoint" />
          </mxGeometry>
        </mxCell>
        <mxCell id="F4SpeGn3STQ8apCfpc9X-35" value="initializeThread() searches files by specific&amp;nbsp; assistant_id" style="rounded=1;whiteSpace=wrap;html=1;fontSize=12;glass=0;strokeWidth=1;shadow=0;fillColor=#cce5ff;strokeColor=#36393d;" parent="WIyWlLk6GJQsqaUBKTNV-1" vertex="1">
          <mxGeometry x="205" y="770" width="130" height="50" as="geometry" />
        </mxCell>
        <mxCell id="F4SpeGn3STQ8apCfpc9X-36" value="&lt;font style=&quot;font-size: 20px;&quot;&gt;Query Logic&lt;/font&gt;" style="text;html=1;align=center;verticalAlign=middle;resizable=0;points=[];autosize=1;strokeColor=none;fillColor=none;" parent="WIyWlLk6GJQsqaUBKTNV-1" vertex="1">
          <mxGeometry x="210" y="545" width="130" height="40" as="geometry" />
        </mxCell>
        <mxCell id="F4SpeGn3STQ8apCfpc9X-44" value="MongoDB" style="text;html=1;align=center;verticalAlign=middle;whiteSpace=wrap;rounded=0;" parent="WIyWlLk6GJQsqaUBKTNV-1" vertex="1">
          <mxGeometry x="10" y="730" width="60" height="30" as="geometry" />
        </mxCell>
        <mxCell id="F4SpeGn3STQ8apCfpc9X-45" value="RAG API" style="text;html=1;align=center;verticalAlign=middle;whiteSpace=wrap;rounded=0;" parent="WIyWlLk6GJQsqaUBKTNV-1" vertex="1">
          <mxGeometry x="280" y="900" width="60" height="30" as="geometry" />
        </mxCell>
        <mxCell id="F4SpeGn3STQ8apCfpc9X-57" value="" style="edgeStyle=orthogonalEdgeStyle;rounded=0;orthogonalLoop=1;jettySize=auto;html=1;" parent="WIyWlLk6GJQsqaUBKTNV-1" source="F4SpeGn3STQ8apCfpc9X-52" target="F4SpeGn3STQ8apCfpc9X-56" edge="1">
          <mxGeometry relative="1" as="geometry" />
        </mxCell>
        <mxCell id="F4SpeGn3STQ8apCfpc9X-61" style="edgeStyle=orthogonalEdgeStyle;rounded=0;orthogonalLoop=1;jettySize=auto;html=1;" parent="WIyWlLk6GJQsqaUBKTNV-1" source="F4SpeGn3STQ8apCfpc9X-52" edge="1">
          <mxGeometry relative="1" as="geometry">
            <mxPoint x="90" y="940" as="targetPoint" />
          </mxGeometry>
        </mxCell>
        <mxCell id="F4SpeGn3STQ8apCfpc9X-52" value="check for if there is a file metadata for specific assistant_id" style="rhombus;whiteSpace=wrap;html=1;fontSize=11;fillColor=#ffcc99;strokeColor=#36393d;" parent="WIyWlLk6GJQsqaUBKTNV-1" vertex="1">
          <mxGeometry x="10" y="730" width="160" height="130" as="geometry" />
        </mxCell>
        <mxCell id="F4SpeGn3STQ8apCfpc9X-56" value="Process without sending request to RAG API" style="whiteSpace=wrap;html=1;fontSize=11;fillColor=#cce5ff;strokeColor=#36393d;" parent="WIyWlLk6GJQsqaUBKTNV-1" vertex="1">
          <mxGeometry x="30" y="620" width="120" height="60" as="geometry" />
        </mxCell>
        <mxCell id="F4SpeGn3STQ8apCfpc9X-58" value="No" style="text;html=1;align=center;verticalAlign=middle;whiteSpace=wrap;rounded=0;" parent="WIyWlLk6GJQsqaUBKTNV-1" vertex="1">
          <mxGeometry x="90" y="700" width="60" height="30" as="geometry" />
        </mxCell>
        <mxCell id="F4SpeGn3STQ8apCfpc9X-59" value="Yes" style="text;html=1;align=center;verticalAlign=middle;whiteSpace=wrap;rounded=0;" parent="WIyWlLk6GJQsqaUBKTNV-1" vertex="1">
          <mxGeometry x="90" y="880" width="60" height="30" as="geometry" />
        </mxCell>
        <mxCell id="F4SpeGn3STQ8apCfpc9X-64" value="" style="edgeStyle=orthogonalEdgeStyle;rounded=0;orthogonalLoop=1;jettySize=auto;html=1;" parent="WIyWlLk6GJQsqaUBKTNV-1" source="F4SpeGn3STQ8apCfpc9X-62" target="F4SpeGn3STQ8apCfpc9X-63" edge="1">
          <mxGeometry relative="1" as="geometry" />
        </mxCell>
        <mxCell id="F4SpeGn3STQ8apCfpc9X-62" value="queryAllFiles() with specific assistant_id inside the createContextHandlers.js" style="rounded=1;whiteSpace=wrap;html=1;fillColor=#cce5ff;strokeColor=#36393d;" parent="WIyWlLk6GJQsqaUBKTNV-1" vertex="1">
          <mxGeometry x="30" y="940" width="140" height="70" as="geometry" />
        </mxCell>
        <mxCell id="F4SpeGn3STQ8apCfpc9X-66" value="" style="edgeStyle=orthogonalEdgeStyle;rounded=0;orthogonalLoop=1;jettySize=auto;html=1;" parent="WIyWlLk6GJQsqaUBKTNV-1" source="F4SpeGn3STQ8apCfpc9X-63" edge="1">
          <mxGeometry relative="1" as="geometry">
            <mxPoint x="509.9999999999999" y="975" as="targetPoint" />
          </mxGeometry>
        </mxCell>
        <mxCell id="F4SpeGn3STQ8apCfpc9X-72" value="" style="edgeStyle=orthogonalEdgeStyle;rounded=0;orthogonalLoop=1;jettySize=auto;html=1;" parent="WIyWlLk6GJQsqaUBKTNV-1" source="F4SpeGn3STQ8apCfpc9X-63" target="F4SpeGn3STQ8apCfpc9X-71" edge="1">
          <mxGeometry relative="1" as="geometry" />
        </mxCell>
        <mxCell id="F4SpeGn3STQ8apCfpc9X-63" value="" style="rounded=0;whiteSpace=wrap;html=1;fillColor=#f0a30a;fontColor=#000000;strokeColor=#BD7000;" parent="WIyWlLk6GJQsqaUBKTNV-1" vertex="1">
          <mxGeometry x="245" y="940" width="130" height="70" as="geometry" />
        </mxCell>
        <mxCell id="F4SpeGn3STQ8apCfpc9X-67" value="" style="edgeStyle=orthogonalEdgeStyle;rounded=0;orthogonalLoop=1;jettySize=auto;html=1;" parent="WIyWlLk6GJQsqaUBKTNV-1" target="F4SpeGn3STQ8apCfpc9X-63" edge="1">
          <mxGeometry relative="1" as="geometry">
            <mxPoint x="509.9999999999999" y="975" as="sourcePoint" />
          </mxGeometry>
        </mxCell>
        <mxCell id="F4SpeGn3STQ8apCfpc9X-69" value="Gets the user query and the specific file_ids" style="text;html=1;align=center;verticalAlign=middle;whiteSpace=wrap;rounded=0;" parent="WIyWlLk6GJQsqaUBKTNV-1" vertex="1">
          <mxGeometry x="280" y="960" width="60" height="30" as="geometry" />
        </mxCell>
        <mxCell id="F4SpeGn3STQ8apCfpc9X-70" value="applied similarity search based on userQuery for specific assistant files" style="text;html=1;align=center;verticalAlign=middle;whiteSpace=wrap;rounded=0;" parent="WIyWlLk6GJQsqaUBKTNV-1" vertex="1">
          <mxGeometry x="390" y="915" width="110" height="40" as="geometry" />
        </mxCell>
        <mxCell id="F4SpeGn3STQ8apCfpc9X-76" value="" style="edgeStyle=orthogonalEdgeStyle;rounded=0;orthogonalLoop=1;jettySize=auto;html=1;" parent="WIyWlLk6GJQsqaUBKTNV-1" source="F4SpeGn3STQ8apCfpc9X-71" target="F4SpeGn3STQ8apCfpc9X-75" edge="1">
          <mxGeometry relative="1" as="geometry" />
        </mxCell>
        <mxCell id="F4SpeGn3STQ8apCfpc9X-71" value="Search results are returned" style="rounded=0;whiteSpace=wrap;html=1;fillColor=#b1ddf0;strokeColor=#10739e;" parent="WIyWlLk6GJQsqaUBKTNV-1" vertex="1">
          <mxGeometry x="245" y="1050" width="130" height="70" as="geometry" />
        </mxCell>
        <mxCell id="F4SpeGn3STQ8apCfpc9X-73" value="LibreChat" style="text;html=1;align=center;verticalAlign=middle;whiteSpace=wrap;rounded=0;" parent="WIyWlLk6GJQsqaUBKTNV-1" vertex="1">
          <mxGeometry x="170" y="1070" width="60" height="30" as="geometry" />
        </mxCell>
        <mxCell id="F4SpeGn3STQ8apCfpc9X-74" value="QdrantVectorDB" style="shape=cylinder3;whiteSpace=wrap;html=1;boundedLbl=1;backgroundOutline=1;size=15;fillColor=#fad9d5;strokeColor=#ae4132;" parent="WIyWlLk6GJQsqaUBKTNV-1" vertex="1">
          <mxGeometry x="530" y="700" width="95" height="105" as="geometry" />
        </mxCell>
        <mxCell id="F4SpeGn3STQ8apCfpc9X-80" value="" style="edgeStyle=orthogonalEdgeStyle;rounded=0;orthogonalLoop=1;jettySize=auto;html=1;" parent="WIyWlLk6GJQsqaUBKTNV-1" source="F4SpeGn3STQ8apCfpc9X-75" edge="1">
          <mxGeometry relative="1" as="geometry">
            <mxPoint x="667" y="1084.9999999999998" as="targetPoint" />
          </mxGeometry>
        </mxCell>
        <mxCell id="F4SpeGn3STQ8apCfpc9X-75" value="search result is parsed and attached to the thread for specific query by using appropriate formatting" style="rounded=1;whiteSpace=wrap;html=1;fontSize=12;glass=0;strokeWidth=1;shadow=0;fillColor=#b1ddf0;strokeColor=#10739e;" parent="WIyWlLk6GJQsqaUBKTNV-1" vertex="1">
          <mxGeometry x="400" y="1052.5" width="160" height="65" as="geometry" />
        </mxCell>
        <mxCell id="F4SpeGn3STQ8apCfpc9X-81" value="&lt;font style=&quot;font-size: 11px;&quot;&gt;enriched userMessage is sent to the OpenAI assistant api&lt;/font&gt;" style="text;html=1;align=center;verticalAlign=middle;whiteSpace=wrap;rounded=0;" parent="WIyWlLk6GJQsqaUBKTNV-1" vertex="1">
          <mxGeometry x="550" y="1020" width="130" height="80" as="geometry" />
        </mxCell>
        <mxCell id="F4SpeGn3STQ8apCfpc9X-85" value="" style="edgeStyle=orthogonalEdgeStyle;rounded=0;orthogonalLoop=1;jettySize=auto;html=1;" parent="WIyWlLk6GJQsqaUBKTNV-1" source="F4SpeGn3STQ8apCfpc9X-83" target="F4SpeGn3STQ8apCfpc9X-84" edge="1">
          <mxGeometry relative="1" as="geometry" />
        </mxCell>
        <mxCell id="F4SpeGn3STQ8apCfpc9X-83" value="OpenAI AssistantAPI" style="rounded=0;whiteSpace=wrap;html=1;fillColor=#bac8d3;strokeColor=#23445d;" parent="WIyWlLk6GJQsqaUBKTNV-1" vertex="1">
          <mxGeometry x="680" y="1055" width="120" height="60" as="geometry" />
        </mxCell>
        <mxCell id="F4SpeGn3STQ8apCfpc9X-84" value="OpenAI retrieved the response to the chat flow" style="rounded=0;whiteSpace=wrap;html=1;fillColor=#b0e3e6;strokeColor=#0e8088;" parent="WIyWlLk6GJQsqaUBKTNV-1" vertex="1">
          <mxGeometry x="680" y="915" width="120" height="60" as="geometry" />
        </mxCell>
        <mxCell id="F4SpeGn3STQ8apCfpc9X-86" value="LibreChat" style="text;html=1;align=center;verticalAlign=middle;whiteSpace=wrap;rounded=0;" parent="WIyWlLk6GJQsqaUBKTNV-1" vertex="1">
          <mxGeometry x="710" y="885" width="60" height="30" as="geometry" />
        </mxCell>
        <mxCell id="F4SpeGn3STQ8apCfpc9X-87" value="Files are stored in vectordb with specific metadata" style="shape=cylinder3;whiteSpace=wrap;html=1;boundedLbl=1;backgroundOutline=1;size=15;fillColor=#ffcccc;strokeColor=#36393d;" parent="WIyWlLk6GJQsqaUBKTNV-1" vertex="1">
          <mxGeometry x="525" y="540" width="90" height="110" as="geometry" />
        </mxCell>
        <mxCell id="Tu8MfIRVwx4Vo5nsX62d-1" value="" style="edgeStyle=orthogonalEdgeStyle;rounded=0;orthogonalLoop=1;jettySize=auto;html=1;" parent="WIyWlLk6GJQsqaUBKTNV-1" source="Tu8MfIRVwx4Vo5nsX62d-0" target="F4SpeGn3STQ8apCfpc9X-74" edge="1">
          <mxGeometry relative="1" as="geometry" />
        </mxCell>
        <mxCell id="Tu8MfIRVwx4Vo5nsX62d-0" value="The &lt;code&gt;query&lt;/code&gt; function retrieves the top 4(k value) most similar items from a vector store based on the provided query, filtered by specified file IDs, and returns their content as a JSON response." style="rounded=0;whiteSpace=wrap;html=1;fillColor=#f0a30a;fontColor=#000000;strokeColor=#BD7000;" parent="WIyWlLk6GJQsqaUBKTNV-1" vertex="1">
          <mxGeometry x="510" y="870" width="135" height="140" as="geometry" />
        </mxCell>
      </root>
    </mxGraphModel>
  </diagram>
</mxfile>
